HIERARCHY
ROOT Hips
{
	OFFSET -0.001795 -0.223333 0.028219
	CHANNELS 6 Xposition Yposition Zposition Zrotation Yrotation Xrotation 
	JOINT LeftUpLeg
	{
		OFFSET 0.069520 -0.091406 -0.006815
		CHANNELS 3 Zrotation Yrotation Xrotation
		JOINT LeftLeg
		{
			OFFSET 0.034277 -0.375199 -0.004496
			CHANNELS 3 Zrotation Yrotation Xrotation
			JOINT LeftFoot
			{
				OFFSET -0.013596 -0.397961 -0.043693
				CHANNELS 3 Zrotation Yrotation Xrotation
				JOINT LeftToe
				{
					OFFSET 0.026358 -0.055791 0.119288
					CHANNELS 3 Zrotation Yrotation Xrotation
					End Site
					{
						OFFSET 0.000000 0.000000 0.000000
					}
				}
			}
		}
	}
	JOINT RightUpLeg
	{
		OFFSET -0.067670 -0.090522 -0.004320
		CHANNELS 3 Zrotation Yrotation Xrotation
		JOINT RightLeg
		{
			OFFSET -0.038290 -0.382569 -0.008850
			CHANNELS 3 Zrotation Yrotation Xrotation
			JOINT RightFoot
			{
				OFFSET 0.015774 -0.398415 -0.042312
				CHANNELS 3 Zrotation Yrotation Xrotation
				JOINT RightToe
				{
					OFFSET -0.025372 -0.048144 0.123348
					CHANNELS 3 Zrotation Yrotation Xrotation
					End Site
					{
						OFFSET 0.000000 0.000000 0.000000
					}
				}
			}
		}
	}
	JOINT Spine
	{
		OFFSET -0.002533 0.108963 -0.026696
		CHANNELS 3 Zrotation Yrotation Xrotation
		JOINT Spine1
		{
			OFFSET 0.005487 0.135180 0.001092
			CHANNELS 3 Zrotation Yrotation Xrotation
			JOINT Spine2
			{
				OFFSET 0.001457 0.052922 0.025425
				CHANNELS 3 Zrotation Yrotation Xrotation
				JOINT Neck
				{
					OFFSET -0.002778 0.213870 -0.042857
					CHANNELS 3 Zrotation Yrotation Xrotation
					JOINT Head
					{
						OFFSET 0.005152 0.064970 0.051349
						CHANNELS 3 Zrotation Yrotation Xrotation
						End Site
						{
							OFFSET 0.000000 0.000000 0.000000
						}
					}
				}
				JOINT LeftShoulder
				{
					OFFSET 0.078845 0.121749 -0.034090
					CHANNELS 3 Zrotation Yrotation Xrotation
					JOINT LeftArm
					{
						OFFSET 0.090977 0.030469 -0.008868
						CHANNELS 3 Zrotation Yrotation Xrotation
						JOINT LeftForeArm
						{
							OFFSET 0.259612 -0.012772 -0.027456
							CHANNELS 3 Zrotation Yrotation Xrotation
							JOINT LeftHand
							{
								OFFSET 0.249234 0.008986 -0.001171
								CHANNELS 3 Zrotation Yrotation Xrotation
								End Site
								{
									OFFSET 0.000000 0.000000 0.000000
								}
							}
						}
					}
				}
				JOINT RightShoulder
				{
					OFFSET -0.081759 0.118833 -0.038615
					CHANNELS 3 Zrotation Yrotation Xrotation
					JOINT RightArm
					{
						OFFSET -0.096012 0.032551 -0.009143
						CHANNELS 3 Zrotation Yrotation Xrotation
						JOINT RightForeArm
						{
							OFFSET -0.253742 -0.013329 -0.021401
							CHANNELS 3 Zrotation Yrotation Xrotation
							JOINT RightHand
							{
								OFFSET -0.255298 0.007772 -0.005559
								CHANNELS 3 Zrotation Yrotation Xrotation
								End Site
								{
									OFFSET 0.000000 0.000000 0.000000
								}
							}
						}
					}
				}
			}
		}
	}
}
MOTION
Frames: 7
Frame Time: 0.050000
0.000000 0.936662 0.000000 -0.244734 0.912040 2.709063 2.163575 0.044947 1.263226 -0.549215 0.232789 -6.031525 -0.356312 0.881027 3.498161 0.000000 0.000000 0.000000 2.333808 -0.198639 1.074501 0.316012 -0.155010 -3.298557 0.787275 1.045350 1.808648 0.000000 0.000000 0.000000 3.118944 0.220073 -4.100532 -0.926331 0.377416 2.980210 -3.539036 1.840510 5.435629 5.657037 -2.069556 -15.468726 0.000000 0.000000 0.000000 -28.224213 -9.070866 1.795198 -24.345618 4.635696 -3.306201 5.243894 -22.495639 -0.266026 0.000000 0.000000 0.000000 19.820936 4.896601 1.695694 27.180347 -6.737238 -4.009313 9.985701 44.587929 5.722605 0.000000 0.000000 0.000000 
-0.000655 0.935562 0.000082 -0.266977 1.229411 3.111573 2.695773 0.046824 1.626406 -1.720196 0.317672 -7.394964 0.117963 1.879224 3.623533 0.000000 0.000000 0.000000 2.231749 -0.140003 0.609787 1.013645 -0.204756 -3.137976 -0.097821 -0.593225 0.694434 0.000000 0.000000 0.000000 4.091972 0.286382 -4.863711 -1.508534 0.656554 3.663178 -4.396150 2.519715 5.239776 7.035130 -2.495126 -17.469240 0.000000 0.000000 0.000000 -27.159171 -10.301159 2.212577 -26.082474 4.346615 -3.417376 7.540265 -22.651098 -0.756590 0.000000 0.000000 0.000000 20.627044 3.435489 1.159165 26.190861 -8.353389 -4.191447 14.762340 46.315507 8.111029 0.000000 0.000000 0.000000 
-0.001118 0.935105 0.000304 -0.104224 1.927406 3.316354 3.089143 -0.035254 0.655672 -2.281184 0.310230 -5.415512 -0.233927 0.860659 2.829560 0.000000 0.000000 0.000000 2.474280 -0.151173 0.639177 1.223636 -0.225527 -3.219756 -0.458765 -1.025235 -0.328959 0.000000 0.000000 0.000000 5.030858 0.295581 -4.822865 -1.777838 0.811731 1.964881 -4.775930 1.726902 6.635400 6.963322 -2.552557 -17.347287 0.000000 0.000000 0.000000 -26.725286 -10.311231 2.473935 -26.689387 4.666956 -3.676943 5.862103 -24.060516 -0.440654 0.000000 0.000000 0.000000 20.162545 4.297425 1.575397 26.927806 -9.438783 -4.536535 14.033118 47.665582 8.020008 0.000000 0.000000 0.000000 
-0.001936 0.934769 0.000789 0.108831 2.191656 3.301908 3.305536 -0.057107 0.429962 -2.719212 0.329421 -4.982946 -0.077879 0.999461 2.430510 0.000000 0.000000 0.000000 2.753480 -0.178340 0.784292 1.392467 -0.242901 -3.327214 -0.679422 -1.566771 -0.398696 0.000000 0.000000 0.000000 5.216815 0.302813 -4.877852 -1.888251 0.859659 2.268901 -4.860859 1.977277 6.172429 7.491101 -2.803478 -17.412937 0.000000 0.000000 0.000000 -28.089249 -10.407927 2.286731 -25.527491 5.242194 -3.528983 6.293934 -24.867054 -0.560022 0.000000 0.000000 0.000000 20.245192 4.069334 1.544264 24.976019 -11.224212 -4.441053 14.947467 48.431688 8.581422 0.000000 0.000000 0.000000 
-0.003094 0.935108 0.001849 0.473331 1.847257 3.209721 2.801156 -0.038551 0.440412 -2.845276 0.334294 -4.313346 -0.003091 0.882659 1.865653 0.000000 0.000000 0.000000 2.770225 -0.209343 1.020287 0.866566 -0.188379 -2.964433 -0.818280 -1.633322 -1.031373 0.000000 0.000000 0.000000 5.527882 0.310462 -4.847015 -1.742783 0.787665 2.469253 -5.671285 2.549416 5.428338 8.352200 -3.454251 -16.208485 0.000000 0.000000 0.000000 -27.661270 -10.935800 2.365636 -25.339883 6.055024 -3.555630 5.231287 -27.268823 -0.392882 0.000000 0.000000 0.000000 19.807428 3.394163 1.297437 24.624714 -11.256056 -4.368331 17.297671 48.377914 9.697136 0.000000 0.000000 0.000000 
-0.004571 0.934695 0.003737 0.626553 1.520057 3.081656 2.308950 -0.013459 0.566643 -2.431449 0.299108 -3.460684 0.584758 1.640275 0.876032 0.000000 0.000000 0.000000 2.760143 -0.242370 1.281695 1.079248 -0.196559 -2.683128 -1.102327 -2.132653 -1.555879 0.000000 0.000000 0.000000 5.837235 0.290704 -4.502043 -1.678866 0.753066 2.911089 -5.712429 2.624613 4.993676 8.256052 -3.362270 -16.341328 0.000000 0.000000 0.000000 -27.832387 -10.768459 2.249426 -25.540240 6.060481 -3.568126 6.028111 -28.830233 -0.627248 0.000000 0.000000 0.000000 19.315903 3.179379 1.145120 24.186234 -10.959957 -4.209676 16.431589 48.206577 9.272133 0.000000 0.000000 0.000000 
-0.006341 0.934317 0.006375 0.886788 1.020613 2.783167 2.075981 0.013560 0.796145 -2.375936 0.289042 -2.765961 0.940513 2.222744 0.516889 0.000000 0.000000 0.000000 2.754763 -0.282133 1.605391 0.915766 -0.175241 -2.467478 -1.349615 -2.628765 -1.869084 0.000000 0.000000 0.000000 6.156177 0.270291 -4.114463 -1.838967 0.842583 2.799829 -5.807952 2.951315 5.097242 8.363014 -3.482490 -16.016947 0.000000 0.000000 0.000000 -27.695088 -10.416266 2.001705 -25.524400 6.492910 -3.643928 6.591409 -31.567172 -0.868496 0.000000 0.000000 0.000000 19.124327 3.053306 1.101809 23.990207 -10.951935 -4.180788 14.791638 48.073141 8.526230 0.000000 0.000000 0.000000 
